<svg viewBox="0 0 512 512" xmlns="http://www.w3.org/2000/svg">
  <!-- Clean square background with subtle rounded corners -->
  <rect x="0" y="0" width="512" height="512" rx="40" fill="#f8f9fa" />
  
  <!-- Google Chat Logo - Primary focus -->
  <g transform="translate(56, 56) scale(1.25)">
    <!-- Blue rectangle (left) -->
    <path d="M76.37 0.51l0.01 76.47L0 76.96V20.77c0.567-3.973 1.743-7.31 3.53-10.01C7.937 4.08 14.343 0.717 22.75 0.67 40.523 0.577 58.397 0.523 76.37 0.51z" fill="#0066da"/>
    
    <!-- Yellow rectangle (top) -->
    <path d="M76.37 0.51l157.42 0.02c0.332 0 0.653 0.101 0.92 0.29l0.37 0.27c-0.107 0.04-0.197 0.083-0.27 0.13a0.297 0.297 0 00-0.17 0.28l-0.02 75.51H76.41l-0.03-0.03L76.37 0.51z" fill="#fbbc04"/>
    
    <!-- Red triangle (top-right) -->
    <path d="M235.08 1.09l75.45 75.68-75.91 0.24 0.02-75.51c0-0.127 0.057-0.22 0.17-0.28 0.073-0.047 0.163-0.09 0.27-0.13z" fill="#ea4335"/>
    
    <!-- Light blue rectangle (middle-left) -->
    <path d="M0 76.96l76.38 0.02 0.03 0.03 0.02 105.68L0 182.67V76.96z" fill="#2684fc"/>
    
    <!-- Green shape (right and bottom) -->
    <path d="M310.53 76.77l0.47 0.34v161.9c-1.773 9.687-6.793 15.943-15.06 18.77-2.947 1.013-7.29 1.513-13.03 1.5-37.26-0.06-74.9-0.117-112.92-0.17-5.52-0.007-11.12 0.033-16.8 0.12-0.313 0.007-0.58 0.12-0.8 0.34a15823.329 15823.329 0 00-56 56.02c-2.87 2.89-6.12 4.5-10.24 3.89-3.84-0.567-6.67-2.547-8.49-5.94-0.767-1.44-1.157-4.067-1.17-7.88-0.047-15.46-0.063-30.97-0.05-46.53l-0.01-38.28 37.78-37.78c0.332-0.333 0.786-0.52 1.26-0.52l118.3 0.04c0.455 0 0.83-0.375 0.83-0.83l-0.03-104.75h0.05l75.91-0.24z" fill="#00ac47"/>
    
    <!-- Dark green rectangle (bottom-left) -->
    <path d="M76.43 182.69v38.16l0.01 38.28c-15.98 0.093-31.823 0.123-47.53 0.09-6.547-0.013-11.263-0.527-14.15-1.54-8.093-2.827-13.013-9.093-14.76-18.8v-56.21l76.43 0.02z" fill="#00832d"/>
  </g>
  
  <!-- Export icon - Bottom right quadrant with clear separation -->
  <g>
    <!-- Circle with slight drop shadow for visual separation -->
    <circle cx="380" cy="380" r="90" fill="#ffffff" />
    <circle cx="380" cy="380" r="85" fill="#ffffff" stroke="#e8eaed" stroke-width="5" />
    
    <!-- Download arrow - Bold and clean for small sizes -->
    <g transform="translate(345, 325)">
      <path d="M35,0 L35,65" stroke="#1a73e8" stroke-width="18" stroke-linecap="round" />
      <path d="M5,40 L35,70 L65,40" stroke="#1a73e8" stroke-width="18" stroke-linecap="round" stroke-linejoin="round" fill="none" />
      <rect x="5" y="85" width="60" height="12" rx="6" fill="#34a853" />
    </g>
  </g>
</svg>